<?xml version="1.0" encoding="UTF-8" standalone="no"?>
<svg
   xmlns:dc="http://purl.org/dc/elements/1.1/"
   xmlns:cc="http://creativecommons.org/ns#"
   xmlns:rdf="http://www.w3.org/1999/02/22-rdf-syntax-ns#"
   xmlns:svg="http://www.w3.org/2000/svg"
   xmlns="http://www.w3.org/2000/svg"
   xmlns:sodipodi="http://sodipodi.sourceforge.net/DTD/sodipodi-0.dtd"
   xmlns:inkscape="http://www.inkscape.org/namespaces/inkscape"
   width="100mm"
   height="100mm"
   viewBox="0 0 100 100"
   version="1.1"
   id="svg8"
   inkscape:version="1.0.1 (3bc2e813f5, 2020-09-07)"
   sodipodi:docname="background-answer.svg">
  <defs
     id="defs2" />
  <sodipodi:namedview
     id="base"
     pagecolor="#ffffff"
     bordercolor="#666666"
     borderopacity="1.0"
     inkscape:pageopacity="0.0"
     inkscape:pageshadow="2"
     inkscape:zoom="1.979899"
     inkscape:cx="320.16646"
     inkscape:cy="266.21292"
     inkscape:document-units="mm"
     inkscape:current-layer="layer1"
     inkscape:document-rotation="0"
     showgrid="false"
     inkscape:window-width="3840"
     inkscape:window-height="2096"
     inkscape:window-x="0"
     inkscape:window-y="27"
     inkscape:window-maximized="1" />
  <metadata
     id="metadata5">
    <rdf:RDF>
      <cc:Work
         rdf:about="">
        <dc:format>image/svg+xml</dc:format>
        <dc:type
           rdf:resource="http://purl.org/dc/dcmitype/StillImage" />
        <dc:title></dc:title>
      </cc:Work>
    </rdf:RDF>
  </metadata>
  <g
     inkscape:label="Calque 1"
     inkscape:groupmode="layer"
     id="layer1">
    <path
       id="rect835"
       style="fill:#ffffff;stroke:none;stroke-width:45.7996;stroke-linecap:round"
       d="M 0,0 V 30.236328 L 188.97656,188.97656 30.236328,0 Z M 188.97656,188.97656 120.08203,0 H 80.003906 Z m 0,0 L 188.87695,0 h -33.11914 z m 0,0 L 257.64648,0 h -35.24609 z m 0,0 L 347.37695,0 H 298.2168 Z m 0,0 L 377.95312,79.736328 V 30.576172 Z m 0,0 188.97656,-33.42383 v -35.24609 z m 0,0 188.97656,33.21875 v -33.11914 z m 0,0 188.97656,108.97266 v -40.07813 z m 0,0 158.74024,188.97656 h 30.23632 V 347.7168 Z m 0,0 68.89453,188.97656 h 40.07813 z m 0,0 0.0996,188.97656 h 33.11914 z m 0,0 -68.66992,188.97656 h 35.24609 z m 0,0 -158.400388,188.97656 h 49.160156 z m 0,0 L 0,298.2168 v 49.16015 z m 0,0 L 0,222.40039 v 35.24609 z m 0,0 L 0,155.75781 v 33.11914 z m 0,0 L 0,80.003906 v 40.078124 z"
       transform="scale(0.26458333)" />
  </g>
</svg>
